<svg width="53" height="52" viewBox="0 0 53 52" fill="none" xmlns="http://www.w3.org/2000/svg">
<path d="M51.9831 23.6091C51.5289 17.4898 48.8891 11.7378 44.5456 7.40344C40.2021 3.06905 34.4446 0.441324 28.3243 0L28.8245 3.11968C32.3005 3.48304 35.643 4.6559 38.5838 6.54421L21.9453 36.899L26.4442 45.5443L44.4156 11.9254C47.0803 15.4276 48.6546 19.6369 48.942 24.0281H52.0107C52.0026 23.8891 51.9939 23.7475 51.9831 23.6091ZM26.4831 38.986L25.4175 36.9406L40.5929 9.26168L41.8062 10.3233L26.4831 38.986Z" fill="url(#paint0_linear_1_2002)"/>
<path d="M44.7613 38.6502C40.6653 44.339 33.9921 48.0509 26.4649 48.0509C14.0425 48.0509 3.93948 37.9465 3.93948 25.5255C3.9345 21.7094 4.90532 17.9554 6.75969 14.6201L5.036 11.5326C1.57078 16.832 0.193395 23.2279 1.17013 29.4839C2.14686 35.7399 5.40834 41.4116 10.324 45.4025C15.2397 49.3934 21.4605 51.42 27.7837 51.0906C34.1069 50.7612 40.0834 48.0992 44.5578 43.6191C45.3398 42.8388 46.0707 42.0089 46.7461 41.1347C46.8576 40.991 46.9673 40.8459 47.0752 40.6996L47.0993 40.6667L45.0137 38.2957C44.9311 38.4085 44.8465 38.528 44.7613 38.6502Z" fill="url(#paint1_linear_1_2002)"/>
<path d="M21.2731 29.5787L19.675 33.0193L18.3804 30.7168L6.60668 9.38603L6.81954 9.12684C6.83901 9.10334 6.85916 9.08051 6.8793 9.0597L6.91287 9.01806C7.37485 8.47148 7.86077 7.94258 8.37065 7.43136C8.76413 7.03833 9.16702 6.65961 9.57931 6.29523C13.2288 3.08437 17.7193 0.982593 22.5227 0.237158L23.0082 3.26418C22.984 3.26418 22.9598 3.27156 22.9363 3.27626C18.5863 3.96529 14.535 5.91867 11.2869 8.89317C10.9659 9.18459 10.6543 9.48742 10.3508 9.79765L15.9879 20.0128L24.9346 15.011L26.4287 17.6841L17.4678 22.6934L21.2731 29.5787Z" fill="url(#paint2_linear_1_2002)"/>
<defs>
<linearGradient id="paint0_linear_1_2002" x1="52.0106" y1="25.5626" x2="-0.531146" y2="25.5626" gradientUnits="userSpaceOnUse">
<stop stop-color="#1440DB"/>
<stop offset="1" stop-color="#1E6AFF"/>
</linearGradient>
<linearGradient id="paint1_linear_1_2002" x1="52.0106" y1="25.5626" x2="-0.531146" y2="25.5626" gradientUnits="userSpaceOnUse">
<stop stop-color="#1440DB"/>
<stop offset="1" stop-color="#1E6AFF"/>
</linearGradient>
<linearGradient id="paint2_linear_1_2002" x1="52.0106" y1="25.5626" x2="-0.531146" y2="25.5626" gradientUnits="userSpaceOnUse">
<stop stop-color="#1440DB"/>
<stop offset="1" stop-color="#1E6AFF"/>
</linearGradient>
</defs>
</svg>
